<svg width="200" height="80" viewBox="0 0 200 80" fill="none" xmlns="http://www.w3.org/2000/svg">
<path d="M27.2248 17.873C33.2202 17.873 37.6009 22.3096 37.6009 27.9958C37.6009 33.8224 33.2202 38.3714 27.2248 38.3714C21.2294 38.3714 16.8486 33.8224 16.8486 27.9958C16.8486 22.3237 21.2434 17.873 27.2248 17.873ZM27.2248 33.9488C30.1874 33.9488 32.5743 31.3935 32.5743 28.0099C32.5743 24.7666 30.1874 22.3237 27.2248 22.3237C24.2622 22.3237 21.8752 24.7666 21.8752 28.0099C21.8752 31.3935 24.2622 33.9488 27.2248 33.9488Z" fill="white"/>
<path d="M39.2437 18.2098H47.4856C51.3468 18.2098 53.9443 21.0459 53.9443 25.0333C53.9443 29.0347 51.3327 31.9129 47.4856 31.9129H44.1017V38.0484H39.2437V18.2098ZM46.4746 27.757C48.1736 27.757 49.002 26.6198 49.002 25.0333C49.002 23.4467 48.1736 22.3657 46.5589 22.3657H44.0877V27.743H46.4746V27.757Z" fill="white"/>
<path d="M56.2754 18.2098H69.0946V22.3657H61.1335V25.9739H69.0946V30.1298H61.1335V33.8785H69.0946V38.0343H56.2754V18.2098Z" fill="white"/>
<path d="M71.4673 18.2098H76.3815L81.8715 27.4762C82.6437 28.7819 83.5423 30.8599 83.5423 30.8599H83.5985C83.5985 30.8599 83.3739 28.7258 83.3739 27.4762V18.2098H88.2319V38.0484H83.3457L77.8277 28.81C77.0555 27.5043 76.1569 25.4264 76.1569 25.4264H76.1008C76.1008 25.4264 76.3254 27.5605 76.3254 28.81V38.0484H71.4673V18.2098Z" fill="white"/>
<path d="M18.2109 41.8672H25.119C27.1409 41.8672 28.1097 42.0076 28.9802 42.3446C31.2267 43.2011 32.6448 45.2369 32.6448 48.1151C32.6448 50.2211 31.6479 52.5236 29.6822 53.5205V53.5766C29.6822 53.5766 29.9631 53.9417 30.4264 54.77L34.2876 61.7058H28.8819L25.3577 55.0227H23.0831V61.7058H18.225V41.8672H18.2109ZM25.1751 50.8529C26.7337 50.8529 27.7025 49.9964 27.7025 48.4099C27.7025 46.9076 27.1409 46.0231 24.7118 46.0231H23.069V50.8529H25.1751Z" fill="white"/>
<path d="M36.0142 41.8672H48.8333V46.0231H40.8722V49.6314H48.8333V53.7872H40.8722V57.5359H48.8333V61.6917H36.0142V41.8672Z" fill="white"/>
<path d="M51.2207 41.8672H63.38V46.0231H56.0788V50.1789H63.38V54.3348H56.0788V61.6917H51.2207V41.8672Z" fill="white"/>
<path d="M65.8931 41.8672H78.7122V46.0231H70.7512V49.6314H78.7122V53.7872H70.7512V57.5359H78.7122V61.6917H65.8931V41.8672Z" fill="white"/>
<path d="M81.0996 41.8672H88.0076C90.0295 41.8672 90.9983 42.0076 91.8688 42.3446C94.1153 43.2011 95.5335 45.2369 95.5335 48.1151C95.5335 50.2211 94.5366 52.5236 92.5709 53.5205V53.5766C92.5709 53.5766 92.8517 53.9417 93.315 54.77L97.1762 61.7058H91.7705L88.2463 55.0227H85.9717V61.7058H81.1136V41.8672H81.0996ZM88.0638 50.8529C89.6223 50.8529 90.5911 49.9964 90.5911 48.4099C90.5911 46.9076 90.0436 46.0231 87.6005 46.0231H85.9577V50.8529H88.0638Z" fill="white"/>
<path d="M125.622 57.536H119.43L118.237 61.6919H113.238L119.978 41.8533H125.089L131.828 61.6919H126.83L125.622 57.536ZM122.505 46.3883C122.505 46.3883 122.056 48.5504 121.705 49.8L120.568 53.661H124.485L123.376 49.8C123.011 48.5504 122.575 46.3883 122.575 46.3883H122.505Z" fill="white"/>
<path d="M111.919 61.2426L112.775 58.7294L110.557 54.7561C110.079 53.9277 109.813 53.5627 109.813 53.5627V53.5065C111.778 52.5097 112.789 50.2071 112.789 48.1011C112.789 45.2229 111.371 43.1871 109.125 42.3307C108.268 41.9937 107.299 41.8533 105.264 41.8533H98.3555V61.6919H103.214V55.0088H105.488L109.012 61.6919H111.764L111.919 61.2426ZM105.306 50.853H103.2V46.0232H104.842C107.285 46.0232 107.833 46.9077 107.833 48.41C107.833 49.9825 106.864 50.853 105.306 50.853Z" fill="white"/>
<path d="M133.485 41.8672H138.343V57.5359H146.445V61.6917H133.485V41.8672Z" fill="white"/>
<path d="M146.445 18.2098H92.3882V22.3657H146.445V18.2098Z" fill="white"/>
<path d="M146.445 33.8926H92.3882V38.0485H146.445V33.8926Z" fill="white"/>
<path d="M146.445 25.974H92.3882V30.1299H146.445V25.974Z" fill="white"/>
<path fill-rule="evenodd" clip-rule="evenodd" d="M195.781 1.54876e-06C197.99 1.64532e-06 199.781 1.79086 199.781 4L199.781 76C199.781 78.2091 197.99 80 195.781 80L162.329 80L160.329 80L4.15605 80H4C1.79086 80 0 78.2092 0 76V75.8442V4.15585V4.00001C0 1.79087 1.79086 3.797e-06 4 3.797e-06H4.15605L160.329 0L195.781 1.54876e-06ZM160.329 6.15585C160.329 5.05128 159.433 4.15585 158.329 4.15585H6.15605C5.05148 4.15585 4.15605 5.05127 4.15605 6.15584V73.8442C4.15605 74.9487 5.05148 75.8442 6.15605 75.8442H158.329C159.433 75.8442 160.329 74.9487 160.329 73.8442V6.15585ZM173.938 32V42.028C173.938 43.5434 172.834 44.6302 171.293 44.6302C169.753 44.6302 168.648 43.5434 168.648 42.028V32H164.164V42.4088C164.164 46.1218 167.019 48.4384 171.293 48.4384C175.535 48.4384 178.422 46.1218 178.422 42.4088V32H173.938ZM181.461 48.248H185.945V44.059L187.429 42.155L191.139 48.248H196.493L190.784 39.2354L196.364 32H191.139L186.171 38.569H185.945V32H181.461V48.248Z" fill="white"/>
</svg>
