<svg width="103.89" height="95.275" xmlns="http://www.w3.org/2000/svg">
 <g>
  <title>background</title>
  <rect fill="none" id="canvas_background" height="97.275" width="105.89" y="-1" x="-1"/>
 </g>
 <g>
  <title>Layer 1</title>
  <g stroke="null" id="svg_9">
   <path stroke="null" id="svg_1" d="m83.909837,87.649163l3.522241,0l0,-10.350873c0.015128,-0.8345 0.231881,-1.661775 0.868142,-2.241365c0.643938,-0.586363 1.537594,-0.747347 2.381125,-0.747347c0.845789,0 1.742155,0.161662 2.390383,0.745993c0.63739,0.574396 0.876722,1.399414 0.922782,2.242719l0,8.68526c0,0.445699 0.08354,0.927524 0.414089,1.252653c0.342741,0.338 0.871529,0.445925 1.321518,0.477083l1.818921,-0.000452l0,-9.549563c0.011967,-1.821179 -0.324453,-3.80402 -1.660646,-5.146085c-1.338677,-1.338452 -3.322647,-1.687515 -5.142698,-1.687515c-0.927524,0 -1.881915,0.081282 -2.780087,0.327388c-0.734929,0.19553 -1.427185,0.504629 -2.033417,0.967487l-0.232558,0.177693l-0.230075,-0.181531c-0.602619,-0.475954 -1.293069,-0.802439 -2.028675,-1.013096c-0.897268,-0.255362 -1.849628,-0.341838 -2.779635,-0.341838c-1.831791,0 -3.811697,0.352901 -5.164825,1.687966c-1.347483,1.341613 -1.702642,3.317906 -1.702642,5.147665l0,9.547531l3.554303,0l0,-10.414545c0.015353,-0.833597 0.227365,-1.662453 0.863626,-2.242719c0.648454,-0.584331 1.539174,-0.745993 2.385415,-0.745993c0.845789,0 1.742155,0.161436 2.390834,0.745541c0.636713,0.574848 0.87627,1.399414 0.92233,2.243171l0,10.41477l-0.000452,0zm-23.279982,-4.798828l-3.614136,0c0.032513,0.695643 0.160081,1.389253 0.438248,2.03003c0.293294,0.669903 0.736961,1.228269 1.331904,1.675322c0.587943,0.506661 1.318583,0.836532 2.058253,1.049221c0.963875,0.272522 1.999549,0.363288 2.997969,0.363288c1.007225,0 2.024837,-0.081734 3.00971,-0.294649c0.819147,-0.180628 1.616618,-0.470987 2.322196,-0.931813c0.632874,-0.409348 1.12802,-0.945586 1.477761,-1.615038c0.397381,-0.750734 0.531723,-1.622263 0.536013,-2.462408c0,-0.509144 -0.081734,-1.010161 -0.267329,-1.486566c-0.180402,-0.47031 -0.456085,-0.885302 -0.796568,-1.240687c-0.532175,-0.495372 -1.314067,-0.854821 -1.987357,-1.112441c-1.114925,-0.434184 -2.334614,-0.725672 -3.503953,-0.959585c-0.842628,-0.158727 -1.852338,-0.406864 -2.58975,-0.854821c-0.541883,-0.321066 -1.003387,-0.795214 -1.003387,-1.462182c0,-0.591782 0.305035,-1.039513 0.823888,-1.312261c0.589072,-0.309777 1.387221,-0.372996 2.042223,-0.372996c0.617295,0 1.286747,0.073154 1.854821,0.332581c0.477083,0.220592 0.859111,0.561527 1.05035,1.05893c0.096636,0.252879 0.26033,0.4387 0.495372,0.570332c0.312034,0.171822 0.692707,0.229171 1.038384,0.240009l2.268685,0c-0.153534,-1.378416 -0.713705,-2.552722 -1.829759,-3.43983c-1.405735,-1.054189 -3.221722,-1.359224 -4.937008,-1.359224c-0.871529,0.014224 -1.742832,0.118311 -2.584332,0.347934c-0.721608,0.201626 -1.404832,0.504855 -2.010161,0.951005c-0.557462,0.410702 -0.987356,0.924588 -1.295327,1.545722c-0.341161,0.682096 -0.466471,1.446603 -0.471213,2.200498c0.014224,1.183112 0.428088,2.167307 1.323098,2.947619c1.085121,0.945586 2.65726,1.413412 4.046062,1.662453c1.08896,0.191917 2.367804,0.462181 3.373675,0.935652c0.599684,0.288553 1.309551,0.763604 1.309551,1.510048c0,0.662904 -0.283586,1.191466 -0.856401,1.532626c-0.627004,0.365545 -1.489276,0.439829 -2.198691,0.439829c-0.644615,0.004741 -1.305261,-0.058478 -1.922105,-0.250847c-0.54956,-0.16979 -1.034997,-0.459246 -1.396253,-0.91217c-0.306164,-0.384511 -0.464439,-0.846241 -0.534432,-1.325582zm-9.782122,-11.328973l0,16.128026l3.490857,0l0,-14.462412c0,-0.438925 -0.074283,-0.944683 -0.393994,-1.269362c-0.327162,-0.322421 -0.832242,-0.396252 -1.271619,-0.396252l-1.825243,0zm0,-4.818923l0,2.565366l3.490857,0l0,-0.874238c0.01016,-0.444344 -0.054414,-0.951005 -0.377738,-1.284489c-0.321969,-0.331903 -0.847822,-0.406638 -1.287876,-0.406638l-1.825243,0zm-11.902917,20.946723l3.554303,0l0,-8.398739c0,-1.079928 0.215173,-2.224205 0.986679,-3.030934c0.764055,-0.805374 1.858885,-1.048318 2.932492,-1.048318l1.059156,0l0,-3.650035l-0.229171,0c-2.160534,0 -4.518629,0.404155 -6.151504,1.935426c-1.612103,1.510951 -2.102055,3.732672 -2.15218,5.859564l0,8.333036l0.000226,0zm-10.110187,-13.403031c1.149696,0 2.112667,0.421314 2.755702,1.391963c0.721834,1.090314 0.87627,2.625199 0.87627,3.902011c-0.012418,1.303003 -0.17837,2.872433 -0.900655,3.99368c-0.638068,0.992098 -1.592008,1.454731 -2.763379,1.454731c-1.155792,0 -2.118312,-0.43599 -2.775571,-1.406413c-0.731994,-1.097539 -0.907654,-2.626328 -0.920073,-3.916235c0,-1.302778 0.158727,-2.872659 0.898171,-3.986003c0.665387,-0.997743 1.649131,-1.433733 2.829534,-1.433733zm0,-2.979906c-2.034094,0 -4.072704,0.472342 -5.460828,2.057576c-1.474826,1.683225 -1.821179,4.184693 -1.821179,6.341389c0,2.149244 0.352901,4.622942 1.821631,6.299167c1.386995,1.589976 3.422444,2.067736 5.460377,2.067736c2.04448,0 4.080155,-0.481373 5.477537,-2.069317c1.47889,-1.674193 1.836533,-4.144052 1.836533,-6.297812c0,-2.161437 -0.351321,-4.658841 -1.836533,-6.34026c-1.398059,-1.582976 -3.436443,-2.058479 -5.477537,-2.058479zm-17.424482,13.658393c-3.006323,0 -3.883497,-2.707836 -3.982842,-5.253107c-0.012418,-1.331227 0.142019,-2.926847 0.917363,-4.054641c0.708287,-1.030481 1.776022,-1.434636 3.001807,-1.434636c1.231881,0 2.307971,0.408219 3.035224,1.429217c0.801084,1.124182 0.97968,2.713932 0.97968,4.061641c-0.037932,1.291263 -0.252201,2.808987 -1.034771,3.878078c-0.705126,0.972455 -1.733349,1.373448 -2.916461,1.373448zm-7.473699,7.800861l1.761346,0c1.194175,0 1.729285,-0.535335 1.729285,-1.729511l0,-4.750058c1.533981,1.421992 3.151728,1.722737 5.153536,1.722737c1.884625,-0.066606 3.598556,-0.649808 4.762476,-2.190563c1.305713,-1.726576 1.604426,-4.20524 1.604426,-6.30436c0,-5.125312 -2.144729,-8.143602 -7.473699,-8.143602c-1.95236,0 -4.05148,0.374125 -5.51592,1.767668c-1.461279,1.39693 -1.935426,3.447958 -2.021902,5.391061l0,14.236628l0.000452,0z" fill="#58595B" clip-rule="evenodd" fill-rule="evenodd"/>
   <path stroke="null" id="svg_2" d="m34.079382,8.028902c3.99368,-3.381126 9.025969,-5.572592 14.549565,-6.028903l0,8.681421c-3.108829,0.40009 -5.99368,1.649131 -8.391288,3.505759l-6.158277,-6.158277z" fill="#3D7498" clip-rule="evenodd" fill-rule="evenodd"/>
   <path stroke="null" id="svg_3" d="m24.998096,25.63085c0.456537,-5.523597 2.648229,-10.555434 6.028903,-14.549791l6.145633,6.145633c-1.878303,2.387673 -3.138859,5.269815 -3.51479,8.404158l-8.659746,0z" fill="#007FB4" clip-rule="evenodd" fill-rule="evenodd"/>
   <path stroke="null" id="svg_4" d="m48.628947,53.669019c-12.367356,0 -14.412288,-0.577557 -23.721391,7.384966l0,-31.106357l8.633781,0l0,16.873341c1.882593,-1.28178 4.316777,-1.785731 8.230755,-1.785731l6.856855,0l0,8.633781z" fill="#0083C2" clip-rule="evenodd" fill-rule="evenodd"/>
   <path stroke="null" id="svg_5" d="m67.495742,47.549802c-3.99368,3.381126 -9.026195,5.572592 -14.549565,6.028903l0,-8.677809c3.14631,-0.393091 6.02958,-1.634004 8.413866,-3.487245l6.135699,6.13615z" fill="#A7A9AC" clip-rule="evenodd" fill-rule="evenodd"/>
   <path stroke="null" id="svg_6" d="m76.576802,29.947628c-0.456311,5.524048 -2.648229,10.555434 -6.028677,14.549565l-6.13615,-6.135925c1.852789,-2.384286 3.094153,-5.267331 3.48747,-8.413641l8.677357,0z" fill="#939598" clip-rule="evenodd" fill-rule="evenodd"/>
   <path stroke="null" id="svg_7" d="m70.548125,11.081059c3.3809,3.993905 5.572366,9.026195 6.028677,14.549791l-8.677357,0c-0.393543,-3.14631 -1.634455,-6.02958 -3.48747,-8.413866l6.13615,-6.135925z" fill="#808285" clip-rule="evenodd" fill-rule="evenodd"/>
   <path stroke="null" id="svg_8" d="m52.945951,1.999999c5.524048,0.456311 10.555434,2.648454 14.549565,6.028903l-6.135925,6.135925c-2.384512,-1.853015 -5.267331,-3.094379 -8.413866,-3.48747l0,-8.677357l0.000226,0z" fill="#6D6E71" clip-rule="evenodd" fill-rule="evenodd"/>
  </g>
 </g>
</svg>