<?xml version="1.0" encoding="utf-8"?>
<!-- Generator: Adobe Illustrator 16.0.0, SVG Export Plug-In . SVG Version: 6.00 Build 0)  -->
<!DOCTYPE svg PUBLIC "-//W3C//DTD SVG 1.1//EN" "http://www.w3.org/Graphics/SVG/1.1/DTD/svg11.dtd">
<svg version="1.1" id="Layer_1" xmlns="http://www.w3.org/2000/svg" xmlns:xlink="http://www.w3.org/1999/xlink" x="0px" y="0px"
	 width="841.89px" height="595.275px" viewBox="0 0 841.89 595.275" enable-background="new 0 0 841.89 595.275"
	 xml:space="preserve">
<path fill-rule="evenodd" clip-rule="evenodd" fill="#58595B" d="M567.843,476.067h15.6v-45.844c0.067-3.696,1.027-7.36,3.845-9.927
	c2.852-2.597,6.81-3.31,10.546-3.31c3.746,0,7.716,0.716,10.587,3.304c2.823,2.544,3.883,6.198,4.087,9.933v38.467
	c0,1.974,0.37,4.108,1.834,5.548c1.518,1.497,3.86,1.975,5.853,2.113l8.056-0.002v-42.295c0.053-8.066-1.437-16.848-7.355-22.792
	c-5.929-5.928-14.716-7.474-22.777-7.474c-4.108,0-8.335,0.36-12.313,1.45c-3.255,0.866-6.321,2.235-9.006,4.285l-1.03,0.787
	l-1.019-0.804c-2.669-2.108-5.727-3.554-8.985-4.487c-3.974-1.131-8.192-1.514-12.311-1.514c-8.113,0-16.882,1.563-22.875,7.476
	c-5.968,5.942-7.541,14.695-7.541,22.799v42.286h15.742v-46.126c0.068-3.692,1.007-7.363,3.825-9.933
	c2.872-2.588,6.817-3.304,10.565-3.304c3.746,0,7.716,0.715,10.589,3.302c2.82,2.546,3.881,6.198,4.085,9.935V476.067z
	 M464.736,454.813h-16.007c0.144,3.081,0.709,6.153,1.941,8.991c1.299,2.967,3.264,5.44,5.899,7.42
	c2.604,2.244,5.84,3.705,9.116,4.647c4.269,1.207,8.856,1.609,13.278,1.609c4.461,0,8.968-0.362,13.33-1.305
	c3.628-0.8,7.16-2.086,10.285-4.127c2.803-1.813,4.996-4.188,6.545-7.153c1.76-3.325,2.355-7.185,2.374-10.906
	c0-2.255-0.362-4.474-1.184-6.584c-0.799-2.083-2.02-3.921-3.528-5.495c-2.357-2.194-5.82-3.786-8.802-4.927
	c-4.938-1.923-10.34-3.214-15.519-4.25c-3.732-0.703-8.204-1.802-11.47-3.786c-2.4-1.422-4.444-3.522-4.444-6.476
	c0-2.621,1.351-4.604,3.649-5.812c2.609-1.372,6.144-1.652,9.045-1.652c2.734,0,5.699,0.324,8.215,1.473
	c2.113,0.977,3.805,2.487,4.652,4.69c0.428,1.12,1.153,1.943,2.194,2.526c1.382,0.761,3.068,1.015,4.599,1.063h10.048
	c-0.68-6.105-3.161-11.306-8.104-15.235c-6.226-4.669-14.269-6.02-21.866-6.02c-3.86,0.063-7.719,0.524-11.446,1.541
	c-3.196,0.893-6.222,2.236-8.903,4.212c-2.469,1.819-4.373,4.095-5.737,6.846c-1.511,3.021-2.066,6.407-2.087,9.746
	c0.063,5.24,1.896,9.599,5.86,13.055c4.806,4.188,11.769,6.26,17.92,7.363c4.823,0.85,10.487,2.047,14.942,4.144
	c2.656,1.278,5.8,3.382,5.8,6.688c0,2.936-1.256,5.277-3.793,6.788c-2.777,1.619-6.596,1.948-9.738,1.948
	c-2.855,0.021-5.781-0.259-8.513-1.111c-2.434-0.752-4.584-2.034-6.184-4.04C465.747,458.981,465.046,456.936,464.736,454.813z
	 M421.411,404.637v71.431h15.461v-64.054c0-1.944-0.329-4.184-1.745-5.622c-1.449-1.428-3.686-1.755-5.632-1.755H421.411z
	 M421.411,383.294v11.362h15.461v-3.872c0.045-1.968-0.241-4.212-1.673-5.689c-1.426-1.47-3.755-1.801-5.704-1.801H421.411z
	 M368.693,476.067h15.742v-37.198c0-4.783,0.953-9.851,4.37-13.424c3.384-3.567,8.233-4.643,12.988-4.643h4.691v-16.166h-1.015
	c-9.569,0-20.013,1.79-27.245,8.572c-7.14,6.692-9.31,16.532-9.532,25.952V476.067z M323.915,416.705
	c5.092,0,9.357,1.866,12.205,6.165c3.197,4.829,3.881,11.627,3.881,17.282c-0.055,5.771-0.79,12.722-3.989,17.688
	c-2.826,4.394-7.051,6.443-12.239,6.443c-5.119,0-9.382-1.931-12.293-6.229c-3.242-4.861-4.02-11.632-4.075-17.345
	c0-5.77,0.703-12.723,3.978-17.654C314.33,418.636,318.687,416.705,323.915,416.705z M323.915,403.507
	c-9.009,0-18.038,2.092-24.186,9.113c-6.532,7.455-8.066,18.534-8.066,28.086c0,9.519,1.563,20.475,8.068,27.899
	c6.143,7.042,15.158,9.158,24.184,9.158c9.055,0,18.071-2.132,24.26-9.165c6.55-7.415,8.134-18.354,8.134-27.893
	c0-9.573-1.556-20.634-8.134-28.081C341.983,405.613,332.955,403.507,323.915,403.507z M246.742,464
	c-13.315,0-17.2-11.993-17.64-23.266c-0.055-5.896,0.629-12.963,4.063-17.958c3.137-4.564,7.866-6.354,13.295-6.354
	c5.456,0,10.222,1.808,13.443,6.33c3.548,4.979,4.339,12.02,4.339,17.989c-0.168,5.719-1.117,12.441-4.583,17.176
	C256.536,462.224,251.982,464,246.742,464z M213.641,498.55h7.801c5.289,0,7.659-2.371,7.659-7.66v-21.038
	c6.794,6.298,13.959,7.63,22.825,7.63c8.347-0.295,15.938-2.878,21.093-9.702c5.783-7.647,7.106-18.625,7.106-27.922
	c0-22.7-9.499-36.068-33.101-36.068c-8.647,0-17.944,1.657-24.43,7.829c-6.472,6.187-8.572,15.271-8.955,23.877V498.55z"/>
<path fill-rule="evenodd" clip-rule="evenodd" fill="#3D7498" d="M347.144,123.429c17.688-14.975,39.976-24.681,64.44-26.702v38.45
	c-13.769,1.772-26.546,7.304-37.165,15.527L347.144,123.429z"/>
<path fill-rule="evenodd" clip-rule="evenodd" fill="#007FB4" d="M306.923,201.388c2.022-24.464,11.729-46.75,26.702-64.441
	l27.219,27.219c-8.319,10.575-13.902,23.34-15.567,37.222H306.923z"/>
<path fill-rule="evenodd" clip-rule="evenodd" fill="#0083C2" d="M411.584,325.569c-54.775,0-63.832-2.558-105.062,32.708v-137.77
	h38.239v74.732c8.338-5.677,19.119-7.909,36.454-7.909h30.369V325.569z"/>
<path fill-rule="evenodd" clip-rule="evenodd" fill="#A7A9AC" d="M495.145,298.467c-17.688,14.975-39.977,24.681-64.44,26.702
	v-38.434c13.935-1.741,26.705-7.237,37.265-15.445L495.145,298.467z"/>
<path fill-rule="evenodd" clip-rule="evenodd" fill="#939598" d="M535.365,220.507c-2.021,24.466-11.729,46.75-26.701,64.44
	l-27.177-27.176c8.206-10.56,13.704-23.329,15.446-37.264H535.365z"/>
<path fill-rule="evenodd" clip-rule="evenodd" fill="#808285" d="M508.664,136.947c14.974,17.689,24.68,39.977,26.701,64.441
	h-38.432c-1.743-13.935-7.239-26.705-15.446-37.265L508.664,136.947z"/>
<path fill-rule="evenodd" clip-rule="evenodd" fill="#6D6E71" d="M430.704,96.727c24.466,2.021,46.75,11.73,64.44,26.702
	l-27.176,27.176c-10.561-8.207-23.329-13.705-37.265-15.446V96.727z"/>
</svg>
